<svg id="Layer_1" data-name="Layer 1" xmlns="http://www.w3.org/2000/svg" viewBox="0 0 595.28 544.05"><defs><style>.cls-1{opacity:0.52;}.cls-2{fill:none;stroke:#231f20;stroke-miterlimit:10;stroke-width:9px;}</style></defs><title>logo fila zero-05-05</title><path d="M110.48,191q-8.73,8.43-8.73,27.16v9.31L71,230.7v10.67h30.75V334.6h17.66V241.37h37.74V228.08H119.41V218q0-11.16,4.27-16t16.2-4.85A77,77,0,0,1,160,199.86l4-13.88a89.09,89.09,0,0,0-24.45-3.39Q119.21,182.59,110.48,191Z"/><polygon points="245.23 228.09 201.48 228.09 201.48 240.02 227.57 242.05 227.57 320.73 194.2 322.67 194.2 334.6 279.38 334.6 279.38 322.67 245.23 320.73 245.23 228.09"/><path d="M236.5,206.45a10.4,10.4,0,0,0,7.22-2.76c2-1.85,3.06-4.64,3.06-8.39q0-11.07-10.28-11.06T226.12,195.3Q226.12,206.45,236.5,206.45Z"/><polygon points="363.68 183.66 319.92 183.66 319.92 195.49 345.92 197.53 345.92 320.73 312.55 322.67 312.55 334.6 397.82 334.6 397.82 322.67 363.68 320.73 363.68 183.66"/><path d="M503.22,234.58q-9.84-8.43-31.87-8.44-18.14,0-37.15,9.32l6.11,13.29q17.56-8,31.82-8,23.67,0,23.67,22.9v6.69l-19.69.68q-49.49,1.54-49.48,33.76,0,15,9,23.38t24.78,8.34q12.42,0,20.28-3.64t15.32-13h.78l3.59,14.75H511.9l1.17-73Q513.07,243,503.22,234.58Zm-7.61,57.53q0,14.36-8.49,22.26t-22.75,7.91Q445,322.28,445,305q0-10.67,7.95-15.86t27-6l15.72-.67Z"/><g class="cls-1"><path class="cls-2" d="M516.49,259.73q0,49.88-14.18,90.94t-43,70.49q-28.81,29.43-71.59,45.55T287.31,482.84q-49.62,0-90.26-13.14t-69.46-40.4Q98.76,402,83.17,359.81T67.58,259.73q0-49.88,14.41-91.1T125,98q28.59-29.43,71.59-45.55T296.76,36.29q49.62,0,90.25,13.13T456.48,90q28.81,27.44,44.42,69.66T516.49,259.73Zm-365.75-2q0,10.32.24,20.62a162.29,162.29,0,0,0,1.66,19.95L414,162.31a134.46,134.46,0,0,0-18-30.92,111.13,111.13,0,0,0-26-24.11,123.73,123.73,0,0,0-34.49-15.79Q316.13,85.84,292,85.83q-32.13,0-58.35,11A116.68,116.68,0,0,0,189,129.56q-18.44,21.78-28.35,53.86T150.74,257.73Zm282.58,4a212.09,212.09,0,0,0-1.18-22.44q-1.18-11.13-2.6-21.78L168.23,354.16a145.85,145.85,0,0,0,18,31.92,108.33,108.33,0,0,0,26.22,25.1,124.28,124.28,0,0,0,35,16.3Q267,433.29,292,433.29q32.14,0,58.36-11a117.4,117.4,0,0,0,44.66-32.58q18.42-21.62,28.35-53.7T433.32,261.72Z"/></g></svg>