<?xml version="1.0" encoding="utf-8"?>
<!-- Generator: Adobe Illustrator 24.0.1, SVG Export Plug-In . SVG Version: 6.00 Build 0)  -->
<svg version="1.1" id="Layer_1" xmlns="http://www.w3.org/2000/svg" xmlns:xlink="http://www.w3.org/1999/xlink" x="0px" y="0px"
	 viewBox="0 0 1977.32 418.21" style="enable-background:new 0 0 1977.32 418.21;" xml:space="preserve">
<style type="text/css">
	.st0{fill:#FFFFFF;}
	.st1{fill:#FAC27E;}
	.st2{opacity:0.52;}
	.st3{fill:none;stroke:#231F20;stroke-width:12.4718;stroke-miterlimit:10;}
</style>
<path class="st0" d="M777.37,201.14"/>
<path class="st1" d="M59.58,204.53l672.68-56.32c0,0,39.8,11.45,39.8,56.32c0,46.74-37.81,56.28-37.81,56.28L59.58,204.53z"/>
<path class="st1" d="M1906.47,204.53l-672.68-56.32c0,0-39.8,11.45-39.8,56.32c0,46.74,37.81,56.28,37.81,56.28L1906.47,204.53z"/>
<g>
	<path d="M896.01,181.69c-2.87,2.78-4.31,7.25-4.31,13.41v4.6l-15.19,1.6v5.27h15.19v46.04h8.72v-46.04h18.64v-6.56h-18.64v-4.98
		c0-3.67,0.7-6.31,2.11-7.9c1.41-1.59,4.07-2.39,8-2.4c3.36,0.01,6.7,0.46,9.94,1.34l1.98-6.86c-3.93-1.12-7.99-1.68-12.08-1.67
		C903.67,177.54,898.89,178.92,896.01,181.69z"/>
	<polygon points="962.56,200.01 940.96,200.01 940.96,205.9 953.84,206.91 953.84,245.76 937.36,246.72 937.36,252.61 
		979.43,252.61 979.43,246.72 962.56,245.76 	"/>
	<path d="M958.25,189.32c1.32,0.02,2.6-0.47,3.57-1.36c0.99-0.91,1.51-2.29,1.51-4.14c0-3.64-1.69-5.47-5.08-5.46
		c-3.38,0-5.09,1.82-5.13,5.46C953.12,187.49,954.83,189.32,958.25,189.32z"/>
	<polygon points="1021.06,178.07 999.45,178.07 999.45,183.91 1012.29,184.92 1012.29,245.76 995.81,246.72 995.81,252.61 
		1037.92,252.61 1037.92,246.72 1021.06,245.76 	"/>
	<path d="M1089.98,203.22c-3.24-2.78-8.49-4.17-15.74-4.17c-5.97,0-12.09,1.53-18.35,4.6l3.02,6.56c5.78-2.63,11.02-3.95,15.72-3.95
		c7.79,0,11.69,3.77,11.69,11.31v3.3l-9.72,0.34c-16.29,0.51-24.44,6.06-24.44,16.67c0,4.94,1.48,8.79,4.44,11.55
		s7.04,4.13,12.24,4.12c4.09,0,7.43-0.6,10.02-1.8c2.59-1.2,5.11-3.34,7.57-6.42h0.39l1.77,7.28h5.69l0.58-36.05
		C1094.84,210.44,1093.22,205.99,1089.98,203.22z M1086.22,231.63c0,4.73-1.4,8.39-4.19,10.99c-2.8,2.6-6.54,3.9-11.24,3.91
		c-6.38,0-9.57-2.84-9.57-8.53c0-3.51,1.31-6.12,3.93-7.83c2.62-1.71,7.06-2.7,13.33-2.96l7.76-0.33L1086.22,231.63z"/>
	<g class="st2">
		<path class="st3" d="M1096.53,215.64c0,16.42-2.33,31.39-7,44.91c-4.67,13.52-11.75,25.12-21.24,34.81
			c-9.49,9.69-21.27,17.19-35.36,22.5c-14.09,5.31-30.62,7.96-49.59,7.97c-16.34,0-31.2-2.16-44.58-6.49
			c-13.38-4.33-24.82-10.98-34.3-19.95c-9.49-8.99-16.8-20.43-21.94-34.32c-5.13-13.89-7.7-30.37-7.7-49.43
			c0-16.42,2.37-31.42,7.12-44.99s11.83-25.2,21.24-34.88c9.41-9.69,21.2-17.19,35.36-22.5c14.16-5.31,30.65-7.97,49.47-7.98
			c16.34,0,31.19,2.16,44.57,6.48c13.38,4.32,24.81,11,34.31,20.04c9.49,9.03,16.8,20.5,21.94,34.4
			C1093.97,180.12,1096.54,196.59,1096.53,215.64z M915.9,214.65c0,3.4,0.04,6.79,0.12,10.18c0.07,3.3,0.34,6.59,0.82,9.85
			l129.08-67.16c-2.27-5.46-5.26-10.6-8.89-15.27c-3.62-4.63-7.95-8.65-12.84-11.91c-5.24-3.46-10.99-6.09-17.03-7.8
			c-6.38-1.86-13.54-2.79-21.49-2.8c-10.58,0-20.18,1.81-28.82,5.43c-8.54,3.54-16.1,9.09-22.05,16.16
			c-6.07,7.17-10.74,16.04-14,26.6S915.9,200.75,915.9,214.65L915.9,214.65z M1055.46,216.63c0-3.7-0.19-7.4-0.58-11.08
			c-0.39-3.66-0.82-7.25-1.28-10.76l-129.06,67.49c2.29,5.61,5.28,10.9,8.89,15.76c3.59,4.83,7.97,9.02,12.95,12.4
			c5.31,3.57,11.14,6.28,17.29,8.05c6.44,1.91,13.77,2.87,22,2.87c10.58,0,20.19-1.81,28.82-5.43c8.53-3.53,16.09-9.05,22.06-16.09
			c6.06-7.12,10.73-15.96,14-26.52C1053.81,242.75,1055.45,230.52,1055.46,216.63L1055.46,216.63z"/>
	</g>
</g>
</svg>
